<?xml version="1.0" encoding="UTF-8" standalone="no"?>
<svg
   xmlns:dc="http://purl.org/dc/elements/1.1/"
   xmlns:cc="http://creativecommons.org/ns#"
   xmlns:rdf="http://www.w3.org/1999/02/22-rdf-syntax-ns#"
   xmlns:svg="http://www.w3.org/2000/svg"
   xmlns="http://www.w3.org/2000/svg"
   xmlns:sodipodi="http://sodipodi.sourceforge.net/DTD/sodipodi-0.dtd"
   xmlns:inkscape="http://www.inkscape.org/namespaces/inkscape"
   version="1.1"
   x="0px"
   y="0px"
   viewBox="0 0 100 125"
   enable-background="new 0 0 100 100"
   xml:space="preserve"
   id="svg1373"
   sodipodi:docname="icon2.svg"
   inkscape:version="0.92.1 r"><metadata
     id="metadata1379"><rdf:RDF><cc:Work
         rdf:about=""><dc:format>image/svg+xml</dc:format><dc:type
           rdf:resource="http://purl.org/dc/dcmitype/StillImage" /><dc:title></dc:title></cc:Work></rdf:RDF></metadata><defs
     id="defs1377" /><sodipodi:namedview
     pagecolor="#ffffff"
     bordercolor="#666666"
     borderopacity="1"
     objecttolerance="10"
     gridtolerance="10"
     guidetolerance="10"
     inkscape:pageopacity="0"
     inkscape:pageshadow="2"
     inkscape:window-width="1876"
     inkscape:window-height="996"
     id="namedview1375"
     showgrid="false"
     inkscape:zoom="6.472"
     inkscape:cx="50"
     inkscape:cy="62.5"
     inkscape:window-x="20"
     inkscape:window-y="20"
     inkscape:window-maximized="0"
     inkscape:current-layer="svg1373" /><g
     display="none"
     id="g1339"><rect
       x="-528.119"
       y="-136.138"
       display="inline"
       fill="#000000"
       width="1249.438"
       height="810.71"
       id="rect1337" /></g><g
     id="g1367"><g
       id="g1365"><path
         fill="none"
         d="M22.328,43.036c1.813,0,3.289-1.475,3.289-3.289c0-1.813-1.476-3.289-3.289-3.289    c-1.813,0-3.289,1.475-3.289,3.289C19.039,41.561,20.514,43.036,22.328,43.036z"
         id="path1341" /><path
         fill="none"
         d="M49.531,32.533c2.574,0,4.669-2.095,4.669-4.669s-2.095-4.668-4.669-4.668s-4.669,2.094-4.669,4.668    S46.956,32.533,49.531,32.533z"
         id="path1343" /><path
         fill="none"
         d="M90.389,41.593l-6.153,4.609c-0.769,0.577-1.723,0.894-2.686,0.894h-7.756c-0.962,0-1.916-0.318-2.686-0.894    l-6.17-4.622c-0.516-0.368-1.176-0.435-1.72-0.214l-0.714,0.564c-0.234,0.32-0.349,0.701-0.326,1.105    c0.031,0.526,0.291,1,0.714,1.302l9.052,7.145l0.063,5.45c0.022,1.932-0.342,3.818-1.084,5.603l-4.159,10.013    c0.342,1.059,0.292,2.194-0.13,3.211c0.236,0.258,0.539,0.45,0.897,0.543c0.869,0.226,1.761-0.164,2.176-0.947L75.43,64.56    c0.368-0.695,1.059-1.149,1.848-1.215l0.087-0.007l0.089,0.009c0.008,0.001,0.076,0.014,0.13,0.008l0.128-0.018l0.089,0.022    c0.014-0.002,0.082-0.011,0.091-0.012l0.087-0.009l0.089,0.007c0.789,0.066,1.48,0.52,1.848,1.215l5.664,10.686    c0.367,0.693,1.063,1.142,1.774,1.12c0.638-0.011,1.205-0.325,1.556-0.86c0.35-0.535,0.41-1.181,0.165-1.771l-4.653-11.2    c-0.742-1.785-1.106-3.671-1.084-5.603l0.063-5.45l9.017-7.118c0.459-0.329,0.719-0.803,0.75-1.329    c0.031-0.529-0.173-1.02-0.573-1.383C92.009,41.123,91.082,41.098,90.389,41.593z"
         id="path1345" /><path
         fill="none"
         d="M32.753,71.388l-3.677-8.852c-0.742-1.785-1.106-3.671-1.084-5.603l0.063-5.45l9.017-7.118    c0.459-0.329,0.719-0.803,0.75-1.329c0.002-0.038-0.006-0.074-0.006-0.111l-2.06-1.627c-0.248,0.053-0.492,0.139-0.711,0.295    l-6.153,4.609c-0.769,0.577-1.723,0.894-2.686,0.894H18.45c-0.962,0-1.916-0.318-2.686-0.894l-6.17-4.622    c-0.677-0.481-1.603-0.456-2.187,0.072c-0.401,0.363-0.604,0.855-0.573,1.384c0.03,0.525,0.291,0.999,0.714,1.301l9.052,7.145    l0.064,5.45c0.022,1.934-0.342,3.819-1.084,5.603l-4.614,11.107c-0.236,0.567-0.224,1.189,0.034,1.706    c0.237,0.478,0.66,0.817,1.189,0.954c0.87,0.226,1.761-0.164,2.176-0.947l5.722-10.795c0.368-0.695,1.059-1.149,1.848-1.215    l0.087-0.007l0.089,0.009c0.008,0.001,0.072,0.014,0.13,0.008l0.127-0.018l0.089,0.022c0.015-0.002,0.083-0.011,0.092-0.012    l0.087-0.009l0.089,0.007c0.789,0.066,1.48,0.52,1.848,1.215l5.664,10.686c0.367,0.693,1.075,1.163,1.774,1.12    c0.23-0.004,0.444-0.06,0.649-0.138c-0.024-0.045-0.059-0.082-0.082-0.128c-0.616-1.24-0.654-2.709-0.104-4.033L32.753,71.388z"
         id="path1347" /><path
         fill="none"
         d="M77.672,43.036c1.813,0,3.289-1.475,3.289-3.289c0-1.813-1.476-3.289-3.289-3.289    c-1.813,0-3.289,1.475-3.289,3.289C74.383,41.561,75.859,43.036,77.672,43.036z"
         id="path1349" /><path
         fill="none"
         d="M39.876,50.715l-0.072-6.222l-0.393-0.31c-0.244,0.652-0.659,1.23-1.24,1.645l-8.294,6.55l-0.053,4.576    c-0.02,1.683,0.298,3.324,0.944,4.879l2.978,7.169l4.855-11.688C39.473,55.212,39.902,52.991,39.876,50.715z"
         id="path1351" /><path
         fill="none"
         d="M70.177,56.954l-0.053-4.576l-8.33-6.577c-0.726-0.516-1.206-1.323-1.37-2.228l-1.166,0.92l-0.072,6.222    c-0.026,2.277,0.403,4.498,1.276,6.599l5.324,12.818l3.447-8.299C69.88,60.278,70.197,58.637,70.177,56.954z"
         id="path1353" /><path
         fill="none"
         d="M58.771,58.017c-0.969-2.333-1.446-4.797-1.417-7.324l0.082-7.095l11.864-9.367    c0.672-0.481,1.064-1.194,1.11-1.983c0.047-0.796-0.259-1.534-0.86-2.078c-0.88-0.797-2.268-0.839-3.304-0.101l-8.179,6.127    c-0.971,0.727-2.174,1.128-3.386,1.128H44.38c-1.213,0-2.416-0.401-3.387-1.128l-8.196-6.14c-1.018-0.725-2.407-0.683-3.286,0.114    c-0.601,0.544-0.906,1.282-0.86,2.078c0.046,0.789,0.438,1.502,1.074,1.956l11.9,9.393l0.082,7.096    c0.029,2.526-0.447,4.99-1.417,7.323L34.161,72.77c-0.346,0.834-0.327,1.75,0.053,2.515c0.355,0.713,0.984,1.219,1.772,1.424    c1.288,0.336,2.615-0.244,3.232-1.408l7.6-14.339c0.448-0.845,1.255-1.375,2.214-1.455l0.087-0.007l0.088,0.009    c0.01,0.001,0.136,0.016,0.22,0.012l0.089-0.005l0.139,0.007c0.068,0,0.189-0.013,0.199-0.014l0.086-0.009l0.088,0.007    c0.959,0.08,1.766,0.61,2.214,1.454l7.523,14.194c0.54,1.02,1.593,1.676,2.627,1.648c0.948-0.016,1.791-0.482,2.312-1.278    c0.521-0.795,0.61-1.754,0.245-2.632L58.771,58.017z"
         id="path1355" /><path
         d="M49.531,34.363c3.584,0,6.5-2.916,6.5-6.5c0-3.584-2.916-6.499-6.5-6.499s-6.5,2.916-6.5,6.499    C43.031,31.448,45.947,34.363,49.531,34.363z M49.531,23.195c2.574,0,4.669,2.094,4.669,4.668s-2.095,4.669-4.669,4.669    s-4.669-2.095-4.669-4.669S46.956,23.195,49.531,23.195z"
         id="path1357" /><path
         d="M89.309,40.114l-6.171,4.622c-0.455,0.341-1.018,0.529-1.587,0.529h-7.756c-0.569,0-1.133-0.188-1.588-0.529l-6.188-4.635    c-0.224-0.16-0.465-0.281-0.71-0.386l5.091-4.02c1.09-0.777,1.761-1.995,1.839-3.34c0.078-1.34-0.453-2.631-1.459-3.542    c-1.512-1.369-3.865-1.469-5.613-0.222l-8.196,6.14c-0.656,0.491-1.469,0.762-2.289,0.762H44.38c-0.82,0-1.633-0.271-2.289-0.762    l-8.214-6.153c-1.732-1.234-4.084-1.134-5.595,0.235c-1.005,0.911-1.537,2.201-1.459,3.542c0.079,1.345,0.749,2.563,1.803,3.313    l5.506,4.347c-0.055,0.035-0.114,0.061-0.167,0.099l-6.171,4.622c-0.455,0.341-1.018,0.529-1.587,0.529H18.45    c-0.569,0-1.132-0.188-1.587-0.529l-6.188-4.635c-1.39-0.99-3.28-0.908-4.496,0.194c-0.808,0.732-1.235,1.77-1.172,2.847    c0.063,1.082,0.603,2.06,1.443,2.658l8.33,6.577l0.053,4.575c0.019,1.684-0.298,3.326-0.944,4.879L9.275,72.94    c-0.439,1.057-0.409,2.232,0.085,3.224c0.477,0.959,1.318,1.638,2.367,1.911c1.692,0.441,3.441-0.325,4.255-1.861l5.722-10.795    c0.083-0.157,0.211-0.218,0.321-0.239c0.089,0.007,0.197,0.011,0.302,0.005c0.106,0.006,0.214,0.001,0.303-0.005    c0.11,0.021,0.239,0.082,0.321,0.239l5.664,10.686c0.677,1.277,1.992,2.094,3.364,2.094c0.02,0,0.041,0,0.061,0    c0.658-0.012,1.286-0.2,1.835-0.527c0.481,0.369,1.033,0.65,1.65,0.81c0.399,0.104,0.801,0.154,1.197,0.154    c1.699,0,3.29-0.922,4.114-2.476l7.6-14.339c0.183-0.345,0.482-0.45,0.68-0.48c0.113,0.009,0.267,0.017,0.414,0.009    c0.147,0.008,0.303,0,0.414-0.009c0.198,0.03,0.497,0.135,0.68,0.479l7.523,14.194c0.86,1.623,2.55,2.66,4.277,2.621    c1.203-0.021,2.33-0.51,3.171-1.335c0.418,0.359,0.913,0.629,1.475,0.775c1.693,0.441,3.441-0.325,4.255-1.861l5.722-10.795    c0.083-0.157,0.211-0.218,0.321-0.239c0.089,0.006,0.195,0.011,0.303,0.005c0.104,0.005,0.214,0.001,0.302-0.005    c0.11,0.021,0.239,0.082,0.321,0.239l5.664,10.686c0.677,1.277,1.992,2.094,3.363,2.094c0.021,0,0.041,0,0.061,0    c1.235-0.022,2.377-0.653,3.055-1.688c0.677-1.034,0.799-2.334,0.324-3.477l-4.653-11.2c-0.646-1.555-0.963-3.196-0.944-4.879    l0.053-4.576l8.294-6.55c0.877-0.625,1.416-1.604,1.479-2.685c0.063-1.078-0.364-2.116-1.172-2.847    C92.606,39.194,90.715,39.112,89.309,40.114z M32.575,76.1c0.023,0.046,0.057,0.083,0.082,0.128    c-0.205,0.079-0.419,0.134-0.649,0.138c-0.699,0.043-1.407-0.427-1.774-1.12L24.57,64.56c-0.368-0.695-1.059-1.149-1.848-1.215    l-0.089-0.007l-0.087,0.009c-0.008,0.001-0.076,0.009-0.092,0.012l-0.089-0.022l-0.127,0.018c-0.058,0.006-0.122-0.007-0.13-0.008    l-0.089-0.009l-0.087,0.007c-0.789,0.066-1.479,0.52-1.848,1.215l-5.722,10.795c-0.415,0.783-1.306,1.173-2.176,0.947    c-0.529-0.138-0.951-0.477-1.189-0.954c-0.257-0.517-0.269-1.138-0.034-1.706l4.614-11.107c0.742-1.784,1.106-3.669,1.084-5.603    l-0.064-5.45l-9.052-7.145c-0.423-0.302-0.684-0.776-0.714-1.301c-0.031-0.529,0.173-1.021,0.573-1.384    c0.583-0.528,1.51-0.553,2.187-0.072l6.17,4.622c0.77,0.577,1.723,0.894,2.686,0.894h7.756c0.962,0,1.916-0.318,2.686-0.894    l6.153-4.609c0.219-0.156,0.463-0.242,0.711-0.295l2.06,1.627c0,0.038,0.008,0.073,0.006,0.111c-0.031,0.526-0.291,1-0.75,1.329    l-9.017,7.118l-0.063,5.45c-0.022,1.932,0.342,3.818,1.084,5.603l3.677,8.852l-0.282,0.679    C31.921,73.391,31.959,74.861,32.575,76.1z M33.744,69.002l-2.978-7.169c-0.646-1.555-0.963-3.196-0.944-4.879l0.053-4.576    l8.294-6.55c0.581-0.414,0.996-0.992,1.24-1.645l0.393,0.31l0.072,6.222c0.026,2.276-0.403,4.497-1.276,6.599L33.744,69.002z     M64.706,75.526c-0.521,0.796-1.364,1.261-2.312,1.278c-1.035,0.029-2.087-0.628-2.627-1.648l-7.523-14.194    c-0.448-0.844-1.255-1.375-2.214-1.454l-0.088-0.007l-0.086,0.009c-0.01,0-0.132,0.014-0.199,0.014l-0.139-0.007l-0.089,0.005    c-0.084,0.004-0.21-0.011-0.22-0.012l-0.088-0.009l-0.087,0.007c-0.959,0.08-1.766,0.61-2.214,1.455l-7.6,14.339    c-0.617,1.164-1.944,1.744-3.232,1.408c-0.788-0.205-1.417-0.711-1.772-1.424c-0.38-0.765-0.4-1.682-0.053-2.515l6.129-14.753    c0.969-2.333,1.446-4.797,1.417-7.323l-0.082-7.096l-11.9-9.393c-0.636-0.454-1.028-1.167-1.074-1.956    c-0.047-0.796,0.259-1.534,0.86-2.078c0.879-0.797,2.268-0.839,3.286-0.114l8.196,6.14c0.971,0.727,2.174,1.128,3.387,1.128    h10.302c1.213,0,2.415-0.401,3.386-1.128l8.179-6.127c1.035-0.738,2.424-0.696,3.304,0.101c0.601,0.544,0.906,1.282,0.86,2.078    c-0.047,0.789-0.438,1.502-1.11,1.983l-11.864,9.367l-0.082,7.095c-0.029,2.527,0.447,4.991,1.417,7.324l6.18,14.876    C65.316,73.771,65.226,74.73,64.706,75.526z M60.462,57.314c-0.873-2.102-1.303-4.322-1.276-6.599l0.072-6.222l1.166-0.92    c0.164,0.905,0.644,1.712,1.37,2.228l8.33,6.577l0.053,4.576c0.02,1.683-0.298,3.324-0.944,4.879l-3.447,8.299L60.462,57.314z     M92.416,44.364l-9.017,7.118l-0.063,5.45c-0.022,1.932,0.342,3.818,1.084,5.603l4.653,11.2c0.245,0.59,0.185,1.236-0.165,1.771    c-0.35,0.535-0.918,0.849-1.556,0.86c-0.711,0.021-1.407-0.427-1.774-1.12L79.914,64.56c-0.368-0.695-1.059-1.149-1.848-1.215    l-0.089-0.007l-0.087,0.009c-0.008,0.001-0.076,0.009-0.091,0.012l-0.089-0.022l-0.128,0.018c-0.054,0.006-0.121-0.007-0.13-0.008    l-0.089-0.009l-0.087,0.007c-0.789,0.066-1.479,0.52-1.848,1.215l-5.722,10.795c-0.415,0.783-1.307,1.173-2.176,0.947    c-0.358-0.093-0.661-0.285-0.897-0.543c0.422-1.017,0.472-2.153,0.13-3.211l4.159-10.013c0.742-1.785,1.106-3.671,1.084-5.603    l-0.063-5.45l-9.052-7.145c-0.423-0.302-0.683-0.776-0.714-1.302c-0.024-0.404,0.092-0.786,0.326-1.105l0.714-0.564    c0.544-0.222,1.204-0.154,1.72,0.214l6.17,4.622c0.77,0.577,1.724,0.894,2.686,0.894h7.756c0.962,0,1.916-0.318,2.686-0.894    l6.153-4.609c0.693-0.494,1.62-0.469,2.204,0.059c0.401,0.363,0.604,0.854,0.573,1.383C93.135,43.561,92.875,44.035,92.416,44.364    z"
         id="path1359" /><path
         d="M77.672,44.867c2.823,0,5.12-2.297,5.12-5.119s-2.297-5.119-5.12-5.119c-2.823,0-5.119,2.297-5.119,5.119    S74.849,44.867,77.672,44.867z M77.672,36.459c1.813,0,3.289,1.475,3.289,3.289c0,1.813-1.476,3.289-3.289,3.289    c-1.813,0-3.289-1.475-3.289-3.289C74.383,37.934,75.859,36.459,77.672,36.459z"
         id="path1361" /><path
         d="M22.328,44.867c2.823,0,5.12-2.297,5.12-5.119s-2.297-5.119-5.12-5.119c-2.823,0-5.119,2.297-5.119,5.119    S19.505,44.867,22.328,44.867z M22.328,36.459c1.813,0,3.289,1.475,3.289,3.289c0,1.813-1.476,3.289-3.289,3.289    c-1.813,0-3.289-1.475-3.289-3.289C19.039,37.934,20.514,36.459,22.328,36.459z"
         id="path1363" /></g></g></svg>