<?xml version="1.0" encoding="UTF-8" standalone="no"?>
<svg
   xmlns:dc="http://purl.org/dc/elements/1.1/"
   xmlns:cc="http://creativecommons.org/ns#"
   xmlns:rdf="http://www.w3.org/1999/02/22-rdf-syntax-ns#"
   xmlns:svg="http://www.w3.org/2000/svg"
   xmlns="http://www.w3.org/2000/svg"
   xmlns:sodipodi="http://sodipodi.sourceforge.net/DTD/sodipodi-0.dtd"
   xmlns:inkscape="http://www.inkscape.org/namespaces/inkscape"
   version="1.1"
   x="0px"
   y="0px"
   viewBox="0 0 100 125"
   enable-background="new 0 0 100 100"
   xml:space="preserve"
   id="svg3790"
   sodipodi:docname="icon1.svg"
   inkscape:version="0.92.1 r"><metadata
     id="metadata3796"><rdf:RDF><cc:Work
         rdf:about=""><dc:format>image/svg+xml</dc:format><dc:type
           rdf:resource="http://purl.org/dc/dcmitype/StillImage" /><dc:title></dc:title></cc:Work></rdf:RDF></metadata><defs
     id="defs3794" /><sodipodi:namedview
     pagecolor="#ffffff"
     bordercolor="#666666"
     borderopacity="1"
     objecttolerance="10"
     gridtolerance="10"
     guidetolerance="10"
     inkscape:pageopacity="0"
     inkscape:pageshadow="2"
     inkscape:window-width="1876"
     inkscape:window-height="996"
     id="namedview3792"
     showgrid="false"
     inkscape:zoom="6.472"
     inkscape:cx="50"
     inkscape:cy="59.409765"
     inkscape:window-x="20"
     inkscape:window-y="20"
     inkscape:window-maximized="0"
     inkscape:current-layer="svg3790" /><g
     display="none"
     id="g3768"><rect
       x="-408.118"
       y="-16.138"
       display="inline"
       fill="#000000"
       width="1249.438"
       height="810.71"
       id="rect3766" /></g><g
     id="g3784"><g
       id="g3782"><path
         fill="none"
         d="M82.372,52.589c0.542-0.542,0.841-1.263,0.841-2.03s-0.299-1.488-0.841-2.03L63.184,29.342    c-2.64-1.149-23.728-1.149-26.369,0L17.628,48.53c-0.542,0.542-0.841,1.263-0.841,2.03s0.299,1.488,0.841,2.029    c1.085,1.085,2.975,1.085,4.06,0L38.25,36.028l3.173,54.155c0.063,0.97,0.88,1.736,1.861,1.736h5.311V60.342    c0-0.777,0.629-1.406,1.406-1.406s1.406,0.629,1.406,1.406v31.576h5.311c0.98,0,1.797-0.767,1.861-1.745l3.172-54.147    l16.562,16.561C79.397,53.674,81.288,53.673,82.372,52.589z"
         id="path3770" /><path
         fill="none"
         d="M50,21.412c3.675,0,6.665-2.99,6.665-6.665S53.675,8.081,50,8.081s-6.665,2.99-6.665,6.665    S46.325,21.412,50,21.412z"
         id="path3772" /><path
         d="M50,24.224c5.226,0,9.478-4.251,9.478-9.478S55.226,5.269,50,5.269s-9.478,4.251-9.478,9.478S44.774,24.224,50,24.224z     M50,8.081c3.675,0,6.665,2.99,6.665,6.665s-2.99,6.665-6.665,6.665s-6.665-2.99-6.665-6.665S46.325,8.081,50,8.081z"
         id="path3774" /><rect
         x="5"
         y="60.595"
         width="3.75"
         height="7.4"
         id="rect3776" /><rect
         x="91.25"
         y="60.595"
         width="3.75"
         height="7.4"
         id="rect3778" /><path
         d="M85.108,62.42H63.021l1.17-19.974l12.131,12.132c1.074,1.074,2.501,1.665,4.019,1.665s2.945-0.591,4.018-1.665    c1.074-1.073,1.665-2.5,1.665-4.018s-0.591-2.945-1.665-4.019L65.078,27.258c-1.053-1.052-6.126-1.586-15.078-1.586    s-14.025,0.534-15.078,1.586L15.639,46.541c-1.074,1.074-1.665,2.501-1.665,4.019s0.591,2.945,1.665,4.018    c1.073,1.074,2.5,1.665,4.018,1.665s2.945-0.591,4.019-1.665l12.131-12.132l1.17,19.974H14.892v-5.729h-4.687v15.208h4.687V66.17    h22.307l1.417,24.185c0.158,2.454,2.208,4.375,4.667,4.375h13.434c2.458,0,4.509-1.922,4.668-4.384l1.417-24.177h22.307v5.729    h4.687V56.691h-4.687V62.42z M61.75,36.028l-3.172,54.147c-0.064,0.978-0.881,1.745-1.861,1.745h-5.311V60.342    c0-0.777-0.629-1.406-1.406-1.406s-1.406,0.629-1.406,1.406v31.576h-5.311c-0.98,0-1.798-0.766-1.861-1.736L38.25,36.028    L21.688,52.589c-1.085,1.085-2.975,1.085-4.06,0c-0.542-0.542-0.841-1.263-0.841-2.029s0.299-1.488,0.841-2.03l19.187-19.187    c2.64-1.149,23.728-1.149,26.369,0L82.372,48.53c0.542,0.542,0.841,1.263,0.841,2.03s-0.299,1.488-0.841,2.03    c-1.084,1.084-2.975,1.084-4.059,0L61.75,36.028z"
         id="path3780" /></g></g><text
     x="0"
     y="115"
     font-size="5px"
     font-weight="bold"
     id="text3786"
     style="font-weight:bold;font-size:5px;font-family:'Helvetica Neue', Helvetica, Arial-Unicode, Arial, Sans-serif;fill:#000000" />
<text
     x="3.2447467"
     y="119.84549"
     font-size="5px"
     font-weight="bold"
     id="text3788"
     style="font-weight:bold;font-size:5px;font-family:'Helvetica Neue', Helvetica, Arial-Unicode, Arial, Sans-serif;fill:#000000" />
</svg>