<svg xmlns="http://www.w3.org/2000/svg" xmlns:xlink="http://www.w3.org/1999/xlink" version="1.1" x="0px" y="0px" viewBox="0 0 100 125" enable-background="new 0 0 100 100" xml:space="preserve"><g display="none"><rect x="-528.119" y="-16.138" display="inline" fill="#000000" width="1249.438" height="810.71"/></g><g><g><path fill="none" d="M50,23.641c4.237,0,7.684-3.447,7.684-7.684c0-4.237-3.447-7.684-7.684-7.684s-7.684,3.447-7.684,7.684    C42.316,20.195,45.763,23.641,50,23.641z"/><path fill="none" d="M77.575,19.606L64.088,29.71c-1.604,1.201-3.591,1.863-5.594,1.863H41.506c-2.004,0-3.99-0.662-5.594-1.863    L22.396,19.585c-0.793-0.565-1.723-0.847-2.637-0.847c-1.013,0-2.004,0.346-2.764,1.034c-0.987,0.895-1.489,2.108-1.413,3.415    c0.076,1.297,0.719,2.469,1.766,3.214l21.716,15.433l1.748,46.958c0.135,1.615,1.568,2.935,3.259,2.935h4.405V63.772    c0-0.842,0.682-1.524,1.524-1.524s1.524,0.682,1.524,1.524v27.955h4.405c1.68,0,3.106-1.303,3.26-2.973l1.746-46.92L82.654,26.4    c1.044-0.745,1.687-1.916,1.763-3.213c0.076-1.308-0.426-2.521-1.414-3.415C81.559,18.463,79.275,18.393,77.575,19.606z"/><path d="M50,26.69c5.918,0,10.732-4.815,10.732-10.732c0-5.918-4.815-10.733-10.732-10.733c-5.918,0-10.733,4.815-10.733,10.733    C39.267,21.875,44.082,26.69,50,26.69z M50,8.273c4.237,0,7.684,3.447,7.684,7.684c0,4.237-3.447,7.684-7.684,7.684    s-7.684-3.447-7.684-7.684C42.316,11.72,45.763,8.273,50,8.273z"/><path d="M87.82,27.363l-1.052-1.303c0.392-0.834,0.637-1.743,0.693-2.695c0.129-2.214-0.749-4.347-2.41-5.852    c-1.75-1.586-4.18-2.117-6.474-1.598l-0.937-1.161l3.989-3.22L78.437,7.58l-11.14,8.993l3.191,3.953l3.988-3.22l0.408,0.506    L62.26,27.27c-1.08,0.809-2.418,1.255-3.766,1.255H41.506c-1.349,0-2.686-0.446-3.766-1.255l-12.626-9.458l0.409-0.506l3.988,3.22    l3.191-3.953L21.563,7.58l-3.191,3.953l3.989,3.22l-0.934,1.157c-2.287-0.516-4.723,0.014-6.477,1.603    c-1.661,1.505-2.539,3.638-2.409,5.852c0.056,0.952,0.3,1.861,0.693,2.695l-1.052,1.303l-3.989-3.22L5,28.097l11.14,8.992    l3.191-3.953l-3.989-3.22l0.616-0.763l20.115,14.295l1.696,45.525c0.269,3.253,3.037,5.801,6.301,5.801H55.93    c3.264,0,6.032-2.548,6.301-5.8l1.696-45.526l20.115-14.295l0.616,0.763l-3.988,3.22l3.191,3.953L95,28.097l-3.191-3.953    L87.82,27.363z M82.654,26.4L60.936,41.834l-1.746,46.92c-0.155,1.669-1.581,2.973-3.26,2.973h-4.405V63.772    c0-0.842-0.682-1.524-1.524-1.524s-1.524,0.682-1.524,1.524v27.955H44.07c-1.69,0-3.124-1.319-3.259-2.935l-1.748-46.958    L17.348,26.401c-1.046-0.746-1.689-1.917-1.766-3.214c-0.076-1.308,0.426-2.521,1.413-3.415c0.76-0.688,1.751-1.034,2.764-1.034    c0.913,0,1.844,0.281,2.637,0.847l13.516,10.125c1.603,1.202,3.59,1.863,5.594,1.863h16.989c2.003,0,3.99-0.662,5.594-1.863    l13.487-10.104c1.7-1.213,3.984-1.143,5.428,0.166c0.988,0.895,1.49,2.108,1.414,3.415C84.341,24.484,83.698,25.655,82.654,26.4z"/></g></g><text x="0" y="115" fill="#000000" font-size="5px" font-weight="bold" font-family="'Helvetica Neue', Helvetica, Arial-Unicode, Arial, Sans-serif">Created by Oksana Latysheva</text><text x="0" y="120" fill="#000000" font-size="5px" font-weight="bold" font-family="'Helvetica Neue', Helvetica, Arial-Unicode, Arial, Sans-serif">from the Noun Project</text></svg>