<svg xmlns="http://www.w3.org/2000/svg" xmlns:xlink="http://www.w3.org/1999/xlink" version="1.1" x="0px" y="0px" viewBox="0 0 100 125" enable-background="new 0 0 100 100" xml:space="preserve"><g display="none"><rect x="-168.118" y="-136.138" display="inline" fill="#000000" width="1249.438" height="810.71"/></g><g><g><path fill="none" d="M78.827,19.645l-15.121,11.84c-1.582,1.186-3.511,1.829-5.457,1.829H41.751c-1.946,0-3.875-0.643-5.432-1.81    L21.12,19.605c-0.755-0.537-1.647-0.806-2.528-0.806c-0.984,0-1.952,0.336-2.693,1.006c-0.958,0.869-1.446,2.047-1.372,3.317    c0.074,1.259,0.699,2.397,1.715,3.121l21.061,17.067l3.769,45.505c0.135,1.636,1.527,2.918,3.168,2.918h4.279V64.585    c0-0.818,0.663-1.48,1.48-1.48s1.48,0.663,1.48,1.48v27.148h4.279c1.641,0,3.034-1.281,3.168-2.917v-0.001l3.769-45.505    l20.988-17.012c1.089-0.78,1.714-1.918,1.788-3.177c0.074-1.27-0.414-2.448-1.372-3.317    C82.696,18.534,80.478,18.466,78.827,19.645z"/><path fill="none" d="M50,10.685c-4.115,0-7.462,3.348-7.462,7.463s3.347,7.463,7.462,7.463s7.462-3.348,7.462-7.463    S54.115,10.685,50,10.685z"/><rect x="69.405" y="6.999" transform="matrix(0.6219 0.7831 -0.7831 0.6219 38.1014 -51.0094)" width="4.934" height="13.904"/><rect x="64.264" y="7.3" transform="matrix(0.7831 -0.6218 0.6218 0.7831 9.0141 44.3952)" width="7.789" height="3.948"/><rect x="80.057" y="32.057" transform="matrix(0.7832 -0.6218 0.6218 0.7832 -2.6013 61.5878)" width="13.904" height="4.934"/><rect x="88.749" y="35.306" transform="matrix(-0.6218 -0.7831 0.7831 -0.6218 116.4385 134.6257)" width="3.948" height="7.789"/><rect x="21.176" y="11.483" transform="matrix(-0.7831 -0.6218 0.6218 -0.7831 41.481 42.3663)" width="13.904" height="4.934"/><rect x="29.868" y="5.379" transform="matrix(0.6219 -0.7831 0.7831 0.6219 4.7782 28.4428)" width="3.948" height="7.789"/><rect x="6.038" y="32.057" transform="matrix(-0.7832 -0.6218 0.6218 -0.7832 1.6977 69.6396)" width="13.904" height="4.934"/><rect x="5.383" y="37.227" transform="matrix(-0.7831 -0.6218 0.6218 -0.7831 -7.8336 75.6692)" width="7.789" height="3.948"/><path d="M50,7.725c-5.747,0-10.423,4.676-10.423,10.423S44.253,28.572,50,28.572s10.423-4.676,10.423-10.423    S55.747,7.725,50,7.725z M50,25.611c-4.115,0-7.462-3.348-7.462-7.463s3.347-7.463,7.462-7.463s7.462,3.348,7.462,7.463    S54.115,25.611,50,25.611z"/><path d="M88.427,23.295c0.126-2.15-0.727-4.222-2.34-5.684c-2.428-2.199-6.204-2.356-9.033-0.338L61.906,29.135    c-1.049,0.785-2.347,1.218-3.657,1.218H41.751c-1.31,0-2.609-0.433-3.632-1.199l-15.227-11.92c-2.776-1.979-6.554-1.82-8.98,0.378    c-1.613,1.461-2.466,3.533-2.34,5.684c0.126,2.159,1.201,4.112,2.878,5.304l20.006,16.216l3.665,44.245    c0.262,3.159,2.95,5.634,6.119,5.634h11.518c3.169,0,5.857-2.475,6.119-5.634v0l3.665-44.245l19.933-16.161    C87.226,27.407,88.301,25.454,88.427,23.295z M83.685,26.299L62.697,43.311l-3.769,45.505v0.001    c-0.135,1.636-1.527,2.917-3.168,2.917H51.48v1.189c0,0.818-0.663,1.48-1.48,1.48s-1.48-0.663-1.48-1.48v-1.189h-4.279    c-1.641,0-3.034-1.281-3.168-2.918l-3.769-45.505L16.242,26.244c-1.016-0.724-1.641-1.862-1.715-3.121    c-0.074-1.27,0.414-2.448,1.372-3.317c0.741-0.671,1.709-1.006,2.693-1.006c0.881,0,1.773,0.268,2.528,0.806l15.199,11.899    c1.557,1.167,3.486,1.81,5.432,1.81h16.498c1.946,0,3.875-0.643,5.457-1.829l15.121-11.84c1.651-1.178,3.869-1.111,5.273,0.161    c0.958,0.869,1.446,2.047,1.372,3.317C85.399,24.382,84.774,25.52,83.685,26.299z"/><path d="M50,63.105c-0.818,0-1.48,0.663-1.48,1.48v27.148v1.189c0,0.818,0.663,1.48,1.48,1.48s1.48-0.663,1.48-1.48v-1.189V64.585    C51.48,63.768,50.818,63.105,50,63.105z"/></g></g><text x="0" y="115" fill="#000000" font-size="5px" font-weight="bold" font-family="'Helvetica Neue', Helvetica, Arial-Unicode, Arial, Sans-serif">Created by Oksana Latysheva</text><text x="0" y="120" fill="#000000" font-size="5px" font-weight="bold" font-family="'Helvetica Neue', Helvetica, Arial-Unicode, Arial, Sans-serif">from the Noun Project</text></svg>