<svg xmlns="http://www.w3.org/2000/svg" xmlns:xlink="http://www.w3.org/1999/xlink" version="1.1" x="0px" y="0px" viewBox="0 0 100 125" enable-background="new 0 0 100 100" xml:space="preserve"><g display="none"><rect x="-48.118" y="-136.138" display="inline" fill="#000000" width="1249.438" height="810.71"/></g><g><g><path fill="none" d="M50,39.03c3.682,0,6.679-2.996,6.679-6.679c0-3.682-2.996-6.679-6.679-6.679    c-3.683,0-6.679,2.996-6.679,6.679C43.321,36.034,46.317,39.03,50,39.03z"/><path fill="none" d="M74.541,26.687l-11.961,8.961c-1.241,0.929-2.738,1.473-4.279,1.617c-1.685,2.835-4.77,4.745-8.3,4.745    c-3.531,0-6.616-1.91-8.301-4.745c-1.541-0.144-3.038-0.688-4.279-1.617l-11.99-8.982c-0.678-0.484-1.475-0.725-2.256-0.725    c-0.865,0-1.711,0.295-2.359,0.882c-0.845,0.765-1.274,1.802-1.209,2.919c0.065,1.109,0.615,2.11,1.508,2.747l17.419,13.75    l3.449,41.634c0.118,1.423,1.329,2.538,2.757,2.538h3.77v-24.66c0-0.823,0.667-1.49,1.49-1.49s1.49,0.667,1.49,1.49v24.66h3.77    c1.428,0,2.639-1.115,2.757-2.538l3.449-41.634l17.36-13.706c0.952-0.681,1.502-1.682,1.567-2.791    c0.065-1.117-0.364-2.154-1.209-2.919C77.95,25.705,75.998,25.648,74.541,26.687z"/><rect x="5" y="10.707" width="4.369" height="10.444"/><rect x="90.631" y="10.707" width="4.369" height="10.444"/><polygon points="84.631,13.745 15.369,13.745 15.369,6.608 9.908,6.608 9.908,25.25 15.369,25.25 15.369,18.113 84.631,18.113     84.631,25.25 90.092,25.25 90.092,6.608 84.631,6.608   "/><path d="M72.783,24.281l-11.99,8.982c-0.391,0.293-0.826,0.516-1.279,0.694c0.088-0.523,0.145-1.057,0.145-1.605    c0-5.325-4.333-9.658-9.658-9.658c-5.326,0-9.659,4.333-9.659,9.658c0,0.548,0.057,1.082,0.145,1.605    c-0.453-0.177-0.888-0.401-1.279-0.694l-12.018-9.002c-2.589-1.846-6.11-1.696-8.374,0.355c-1.504,1.363-2.299,3.295-2.182,5.302    c0.118,2.014,1.121,3.836,2.695,4.955l16.344,12.904l3.341,40.344c0.245,2.956,2.76,5.272,5.727,5.272h10.52    c2.967,0,5.482-2.316,5.727-5.272l3.341-40.344l16.286-12.86c1.632-1.163,2.636-2.985,2.753-4.999    c0.117-2.006-0.678-3.939-2.182-5.302C78.92,22.563,75.399,22.415,72.783,24.281z M50,25.673c3.682,0,6.679,2.996,6.679,6.679    c0,3.683-2.996,6.679-6.679,6.679c-3.683,0-6.679-2.996-6.679-6.679C43.321,28.669,46.317,25.673,50,25.673z M78.826,32.534    L61.466,46.24l-3.449,41.634c-0.118,1.423-1.329,2.538-2.757,2.538h-3.77v-24.66c0-0.823-0.667-1.49-1.49-1.49    s-1.49,0.667-1.49,1.49v24.66h-3.77c-1.428,0-2.639-1.115-2.757-2.538L38.534,46.24L21.116,32.49    c-0.894-0.637-1.443-1.639-1.508-2.747c-0.065-1.117,0.364-2.154,1.209-2.919c0.648-0.587,1.494-0.882,2.359-0.882    c0.781,0,1.578,0.241,2.256,0.725l11.99,8.982c1.241,0.929,2.738,1.473,4.279,1.617C43.384,40.1,46.469,42.01,50,42.01    c3.53,0,6.616-1.91,8.3-4.745c1.54-0.143,3.038-0.688,4.279-1.617l11.961-8.961c1.457-1.038,3.409-0.982,4.644,0.137    c0.844,0.765,1.273,1.802,1.209,2.919C80.328,30.852,79.779,31.853,78.826,32.534z"/></g></g><text x="0" y="115" fill="#000000" font-size="5px" font-weight="bold" font-family="'Helvetica Neue', Helvetica, Arial-Unicode, Arial, Sans-serif">Created by Oksana Latysheva</text><text x="0" y="120" fill="#000000" font-size="5px" font-weight="bold" font-family="'Helvetica Neue', Helvetica, Arial-Unicode, Arial, Sans-serif">from the Noun Project</text></svg>